<?xml version="1.0" standalone="no"?>
<!DOCTYPE svg PUBLIC "-//W3C//DTD SVG 20010904//EN"
 "http://www.w3.org/TR/2001/REC-SVG-20010904/DTD/svg10.dtd">
<svg version="1.0" xmlns="http://www.w3.org/2000/svg"
 width="1000.000000pt" height="500.000000pt" viewBox="0 0 1000.000000 500.000000"
 preserveAspectRatio="xMidYMid meet">

<g transform="translate(0.000000,500.000000) scale(0.100000,-0.100000)"
fill="#000000" stroke="none">
<path d="M2750 2755 l0 -335 50 0 50 0 0 335 0 335 -50 0 -50 0 0 -335z"/>
<path d="M2950 2755 l0 -335 50 0 50 0 0 335 0 335 -50 0 -50 0 0 -335z"/>
<path d="M3740 2755 l0 -335 50 0 50 0 0 335 0 335 -50 0 -50 0 0 -335z"/>
<path d="M6580 2755 l0 -335 50 0 50 0 0 335 0 335 -50 0 -50 0 0 -335z"/>
<path d="M7560 3040 l0 -50 60 0 60 0 0 50 0 50 -60 0 -60 0 0 -50z"/>
<path d="M1930 2735 l0 -315 55 0 55 0 0 315 0 315 -55 0 -55 0 0 -315z"/>
<path d="M2113 2894 l-62 -156 62 -159 62 -159 58 0 c69 0 70 -17 -9 173 -30
71 -54 136 -54 143 0 8 27 79 60 158 33 80 60 147 60 150 0 3 -26 6 -57 6
l-58 0 -62 -156z"/>
<path d="M5439 3039 c-40 -15 -49 -49 -49 -173 0 -151 5 -158 121 -166 l84 -5
3 -93 3 -93 -48 3 -48 3 -3 43 -3 42 -55 0 -54 0 0 -59 c0 -49 4 -65 24 -88
24 -28 26 -28 136 -28 110 0 112 0 136 28 23 26 24 35 24 151 0 162 -4 168
-121 176 l-84 5 -3 84 c-3 91 2 101 49 101 35 0 49 -18 49 -62 l0 -38 55 0 55
0 0 59 c0 49 -4 65 -24 88 -23 27 -28 28 -123 30 -54 1 -110 -2 -124 -8z"/>
<path d="M4340 2955 c0 -41 -2 -45 -25 -45 -22 0 -25 -4 -25 -39 0 -33 4 -40
23 -43 22 -3 22 -5 24 -173 2 -103 7 -179 14 -192 14 -27 57 -43 115 -43 l44
0 0 45 c0 43 -1 45 -30 45 -39 0 -41 12 -38 180 l3 135 33 3 c30 3 32 6 32 43
0 38 -1 39 -35 39 -35 0 -35 0 -35 45 l0 45 -50 0 -50 0 0 -45z"/>
<path d="M2399 2899 c-43 -16 -49 -46 -49 -239 0 -175 1 -180 24 -207 22 -25
31 -28 86 -28 49 0 64 4 76 19 14 19 14 19 14 -2 0 -20 5 -22 55 -22 l55 0 0
245 0 245 -55 0 c-50 0 -55 -2 -55 -22 0 -21 -1 -21 -13 -4 -16 22 -98 31
-138 15z m140 -83 c8 -9 11 -60 9 -157 l-3 -144 -42 -3 -43 -3 0 155 c0 114 3
156 13 159 24 10 55 7 66 -7z"/>
<path d="M3121 2792 l-52 -119 52 -126 53 -127 57 0 57 0 -48 108 c-26 60 -51
118 -54 130 -5 14 9 54 44 128 27 59 50 111 50 115 0 5 -24 9 -54 9 l-53 0
-52 -118z"/>
<path d="M3330 2708 c0 -264 9 -284 121 -287 23 -1 46 7 63 20 l26 20 0 -20
c0 -18 6 -21 50 -21 l50 0 0 245 0 245 -50 0 -50 0 0 -187 c0 -104 -4 -194 -9
-201 -5 -8 -23 -12 -47 -10 l-39 3 -3 198 -2 197 -55 0 -55 0 0 -202z"/>
<path d="M3979 2899 c-43 -16 -49 -46 -49 -239 0 -175 1 -180 24 -207 22 -25
31 -28 86 -28 49 0 64 4 76 19 14 19 14 19 14 -2 0 -20 5 -22 55 -22 l55 0 0
245 0 245 -55 0 c-50 0 -55 -2 -55 -22 0 -21 -1 -21 -13 -4 -16 22 -98 31
-138 15z m140 -83 c8 -9 11 -60 9 -157 l-3 -144 -42 -3 -43 -3 0 155 c0 114 3
156 13 159 24 10 55 7 66 -7z"/>
<path d="M4614 2900 c-49 -20 -54 -42 -54 -237 0 -178 1 -183 24 -210 24 -28
26 -28 136 -28 110 0 112 0 136 28 23 27 24 32 24 207 0 197 -6 223 -53 240
-36 12 -183 12 -213 0z m154 -82 c8 -8 12 -57 12 -154 0 -159 -3 -167 -67
-162 l-38 3 -3 150 c-1 82 0 155 2 162 7 16 78 17 94 1z"/>
<path d="M4970 2665 l0 -245 49 0 50 0 3 181 c3 176 4 181 27 200 13 10 36 19
52 19 28 0 29 2 29 45 0 42 -2 45 -26 45 -15 0 -38 -12 -55 -29 l-29 -29 0 29
c0 28 -1 29 -50 29 l-50 0 0 -245z"/>
<path d="M5798 2618 l-3 -293 -55 -3 c-32 -2 -62 -10 -72 -19 -19 -17 -24 -72
-9 -89 4 -5 11 -25 14 -45 5 -32 1 -41 -25 -65 -16 -16 -42 -49 -56 -74 -36
-60 -38 -173 -5 -236 49 -92 126 -147 224 -160 102 -14 217 48 273 146 27 48
31 64 31 130 0 86 -20 133 -78 189 -31 29 -35 38 -30 70 3 20 10 40 14 45 15
17 10 72 -9 89 -9 8 -37 17 -62 19 l-45 3 -3 68 -3 68 30 -22 c25 -19 38 -21
83 -16 92 11 101 37 96 276 -3 149 -5 162 -25 182 -33 33 -115 38 -154 10 -29
-21 -29 -21 -29 -1 0 17 -6 20 -50 20 l-50 0 -2 -292z m191 198 c8 -9 11 -60
9 -157 l-3 -144 -39 -3 c-24 -2 -42 2 -47 10 -5 7 -9 72 -9 145 0 106 3 135
16 147 19 20 58 21 73 2z m-255 -547 c20 -9 29 -9 41 1 13 11 20 11 40 0 21
-11 29 -11 50 0 20 11 27 11 40 0 12 -10 21 -10 41 -1 46 21 59 -8 23 -53 -21
-26 -22 -27 -131 -24 -107 3 -112 4 -131 30 -11 14 -17 34 -14 42 8 19 9 19
41 5z m216 -127 c0 -5 24 -36 54 -71 68 -78 84 -129 67 -207 -26 -114 -113
-184 -229 -184 -116 0 -196 60 -229 169 -24 83 -7 141 62 222 30 34 55 66 55
71 0 4 50 8 110 8 61 0 110 -4 110 -8z"/>
<path d="M5820 2060 c0 -11 -9 -29 -20 -40 -32 -32 -25 -64 26 -121 42 -47 44
-53 30 -67 -12 -13 -18 -14 -28 -4 -14 14 -48 16 -48 4 0 -5 9 -17 20 -27 11
-10 20 -29 20 -42 0 -16 6 -23 20 -23 14 0 20 7 20 23 0 13 9 32 20 42 32 29
25 66 -20 110 -44 43 -54 85 -20 85 11 0 20 -4 20 -10 0 -5 9 -10 20 -10 11 0
20 5 20 10 0 6 -9 19 -20 30 -11 11 -20 29 -20 40 0 13 -7 20 -20 20 -13 0
-20 -7 -20 -20z"/>
<path d="M6229 2899 c-43 -16 -49 -46 -49 -239 0 -175 1 -180 24 -207 22 -25
31 -28 86 -28 49 0 64 4 76 19 14 19 14 19 14 -2 0 -20 5 -22 55 -22 l55 0 0
245 0 245 -55 0 c-50 0 -55 -2 -55 -22 0 -21 -1 -21 -13 -4 -16 22 -98 31
-138 15z m140 -83 c8 -9 11 -60 9 -157 l-3 -144 -42 -3 -43 -3 0 155 c0 114 3
156 13 159 24 10 55 7 66 -7z"/>
<path d="M6819 2899 c-43 -16 -49 -46 -49 -239 0 -175 1 -180 24 -207 22 -25
31 -28 86 -28 49 0 64 4 76 19 14 19 14 19 14 -2 0 -20 5 -22 55 -22 l55 0 0
245 0 245 -55 0 c-50 0 -55 -2 -55 -22 0 -21 -1 -21 -13 -4 -16 22 -98 31
-138 15z m140 -83 c8 -9 11 -60 9 -157 l-3 -144 -42 -3 -43 -3 0 155 c0 114 3
156 13 159 24 10 55 7 66 -7z"/>
<path d="M7170 2665 l0 -245 50 0 50 0 0 189 c0 204 4 221 54 221 43 0 46 -13
46 -217 l0 -193 56 0 55 0 -3 220 c-3 210 -4 220 -25 241 -33 33 -115 38 -154
10 -29 -21 -29 -21 -29 -1 0 17 -6 20 -50 20 l-50 0 0 -245z"/>
<path d="M7570 2665 l0 -245 50 0 50 0 0 245 0 245 -50 0 -50 0 0 -245z"/>
<path d="M7809 2899 c-43 -16 -49 -46 -49 -239 0 -175 1 -180 24 -207 22 -25
31 -28 86 -28 49 0 64 4 76 19 14 19 14 19 14 -2 0 -20 5 -22 55 -22 l55 0 0
245 0 245 -55 0 c-50 0 -55 -2 -55 -22 0 -21 -1 -21 -13 -4 -16 22 -98 31
-138 15z m140 -83 c8 -9 11 -60 9 -157 l-3 -144 -42 -3 -43 -3 0 155 c0 114 3
156 13 159 24 10 55 7 66 -7z"/>
<path d="M5007 2303 c-26 -9 -64 -30 -84 -48 -33 -29 -37 -37 -36 -76 2 -44 2
-65 2 -139 0 -22 0 -51 0 -65 0 -14 0 -43 0 -65 0 -22 1 -50 1 -62 1 -13 -2
-35 -5 -51 -15 -58 36 -115 130 -148 65 -22 210 -17 270 10 93 41 126 92 104
158 -8 26 -8 41 1 63 9 22 9 37 0 64 -8 27 -9 45 -1 69 8 24 8 42 0 65 -8 23
-8 41 1 67 18 56 -10 102 -85 140 -51 25 -72 30 -155 32 -68 2 -108 -2 -143
-14z m243 -63 c20 -5 46 -19 59 -31 34 -32 24 -60 -31 -87 -121 -60 -335 -23
-326 56 8 65 163 97 298 62z"/>
<path d="M5243 2188 c2 -7 14 -13 27 -13 13 0 25 6 28 13 2 8 -7 12 -28 12
-21 0 -30 -4 -27 -12z"/>
<path d="M4310 2249 c-40 -12 -88 -44 -113 -76 -16 -20 -28 -23 -83 -23 -57 0
-64 -2 -64 -20 0 -11 -4 -20 -10 -20 -6 0 -10 -87 -10 -240 l0 -240 345 0 345
0 0 219 c0 136 -4 222 -10 226 -5 3 -10 22 -10 41 l0 34 -61 0 c-57 0 -65 3
-94 33 -60 62 -158 89 -235 66z m162 -61 c21 -10 50 -36 64 -58 15 -22 32 -40
38 -40 6 0 16 -10 21 -22 6 -13 18 -24 28 -26 14 -3 17 4 17 32 0 20 5 36 10
36 6 0 10 -11 10 -24 0 -14 5 -28 10 -31 6 -4 10 -80 10 -196 l0 -189 -305 0
-305 0 0 195 c0 167 2 195 15 195 10 0 15 -10 15 -30 l0 -30 80 0 80 0 0 50
c0 49 -1 50 -30 50 -36 0 -37 6 -7 41 64 76 157 94 249 47z m-262 -113 c0 -11
-12 -15 -50 -15 -38 0 -50 4 -50 15 0 11 12 15 50 15 38 0 50 -4 50 -15z m40
0 c0 -8 -7 -15 -15 -15 -8 0 -15 7 -15 15 0 8 7 15 15 15 8 0 15 -7 15 -15z
m-42 -42 c2 -9 -11 -13 -47 -13 -39 0 -51 4 -51 16 0 12 10 14 47 12 26 -2 48
-9 51 -15z m42 2 c0 -8 -7 -15 -15 -15 -8 0 -15 7 -15 15 0 8 7 15 15 15 8 0
15 -7 15 -15z"/>
</g>
</svg>
