<svg width="1000" height="500" viewBox="0 0 1000 500" fill="none" xmlns="http://www.w3.org/2000/svg">
<rect width="1000" height="500" fill="#1E1E1E"/>
<rect width="1000" height="500" fill="#313131"/>
<path d="M208.168 273V256.04L194.472 226.28H202.856L210.152 242.472C210.707 243.752 211.176 245.011 211.56 246.248C211.944 247.485 212.2 248.445 212.328 249.128C212.499 248.445 212.755 247.485 213.096 246.248C213.48 245.011 213.949 243.752 214.504 242.472L221.608 226.28H229.928L216.232 256.04V273H208.168ZM250.575 273.576C247.588 273.576 244.986 273.021 242.767 271.912C240.591 270.76 238.884 269.16 237.647 267.112C236.452 265.021 235.855 262.568 235.855 259.752V251.048C235.855 248.232 236.452 245.8 237.647 243.752C238.884 241.661 240.591 240.061 242.767 238.952C244.986 237.8 247.588 237.224 250.575 237.224C253.604 237.224 256.207 237.8 258.383 238.952C260.559 240.061 262.244 241.661 263.439 243.752C264.676 245.8 265.295 248.211 265.295 250.984V259.752C265.295 262.568 264.676 265.021 263.439 267.112C262.244 269.16 260.559 270.76 258.383 271.912C256.207 273.021 253.604 273.576 250.575 273.576ZM250.575 266.6C252.708 266.6 254.351 266.024 255.503 264.872C256.698 263.677 257.295 261.971 257.295 259.752V251.048C257.295 248.787 256.698 247.08 255.503 245.928C254.351 244.776 252.708 244.2 250.575 244.2C248.484 244.2 246.842 244.776 245.647 245.928C244.452 247.08 243.855 248.787 243.855 251.048V259.752C243.855 261.971 244.452 263.677 245.647 264.872C246.842 266.024 248.484 266.6 250.575 266.6ZM288.95 273.64C284.47 273.64 280.95 272.403 278.39 269.928C275.83 267.411 274.55 263.997 274.55 259.688V237.8H282.55V259.624C282.55 261.885 283.105 263.635 284.214 264.872C285.323 266.067 286.902 266.664 288.95 266.664C290.955 266.664 292.513 266.067 293.622 264.872C294.774 263.635 295.35 261.885 295.35 259.624V237.8H303.35V259.688C303.35 263.997 302.049 267.411 299.446 269.928C296.843 272.403 293.345 273.64 288.95 273.64ZM314.141 273V237.8H321.693V244.52H323.677L321.309 248.616C321.309 244.819 322.162 241.96 323.869 240.04C325.576 238.12 328.093 237.16 331.421 237.16C335.218 237.16 338.205 238.333 340.381 240.68C342.557 243.027 343.645 246.269 343.645 250.408V252.968H335.261V250.984C335.261 248.723 334.664 246.973 333.469 245.736C332.317 244.499 330.717 243.88 328.669 243.88C326.578 243.88 324.957 244.499 323.805 245.736C322.696 246.973 322.141 248.723 322.141 250.984V273H314.141ZM504.928 273V226.28H520.48C523.595 226.28 526.304 226.877 528.608 228.072C530.955 229.267 532.768 230.952 534.048 233.128C535.328 235.261 535.968 237.779 535.968 240.68C535.968 243.539 535.307 246.056 533.984 248.232C532.704 250.408 530.912 252.093 528.608 253.288C526.304 254.483 523.595 255.08 520.48 255.08H512.928V273H504.928ZM512.928 247.848H520.48C522.699 247.848 524.469 247.208 525.792 245.928C527.157 244.605 527.84 242.856 527.84 240.68C527.84 238.461 527.157 236.712 525.792 235.432C524.469 234.152 522.699 233.512 520.48 233.512H512.928V247.848ZM553.671 273.64C550.044 273.64 547.186 272.68 545.095 270.76C543.004 268.84 541.959 266.259 541.959 263.016C541.959 259.56 543.111 256.893 545.415 255.016C547.719 253.139 550.983 252.2 555.207 252.2H563.975V249.192C563.975 247.485 563.42 246.163 562.311 245.224C561.202 244.243 559.687 243.752 557.767 243.752C556.018 243.752 554.567 244.136 553.415 244.904C552.263 245.672 551.58 246.717 551.367 248.04H543.559C543.943 244.712 545.436 242.067 548.039 240.104C550.642 238.141 553.97 237.16 558.023 237.16C562.332 237.16 565.724 238.248 568.199 240.424C570.716 242.557 571.975 245.459 571.975 249.128V273H564.231V266.856H562.951L564.231 265.128C564.231 267.731 563.271 269.8 561.351 271.336C559.431 272.872 556.871 273.64 553.671 273.64ZM556.295 267.624C558.556 267.624 560.391 267.048 561.799 265.896C563.25 264.744 563.975 263.251 563.975 261.416V257.128H555.335C553.714 257.128 552.412 257.597 551.431 258.536C550.45 259.475 549.959 260.712 549.959 262.248C549.959 263.912 550.514 265.235 551.623 266.216C552.775 267.155 554.332 267.624 556.295 267.624ZM594.606 273.576C591.918 273.576 589.571 273.149 587.566 272.296C585.561 271.443 583.982 270.269 582.83 268.776C581.721 267.24 581.123 265.448 581.038 263.4H589.038C589.123 264.509 589.657 265.405 590.638 266.088C591.662 266.771 592.985 267.112 594.606 267.112H597.422C599.385 267.112 600.857 266.728 601.838 265.96C602.819 265.192 603.31 264.147 603.31 262.824C603.31 261.587 602.862 260.627 601.966 259.944C601.113 259.219 599.769 258.749 597.934 258.536L593.582 257.896C589.571 257.341 586.627 256.275 584.75 254.696C582.873 253.117 581.934 250.749 581.934 247.592C581.934 244.307 583.043 241.768 585.262 239.976C587.481 238.141 590.745 237.224 595.054 237.224H597.486C601.411 237.224 604.547 238.099 606.894 239.848C609.241 241.597 610.499 243.944 610.67 246.888H602.67C602.542 245.949 602.009 245.181 601.07 244.584C600.174 243.987 598.979 243.688 597.486 243.688H595.054C593.219 243.688 591.875 244.029 591.022 244.712C590.211 245.352 589.806 246.312 589.806 247.592C589.806 248.787 590.169 249.683 590.894 250.28C591.619 250.835 592.793 251.24 594.414 251.496L598.958 252.136C603.139 252.733 606.211 253.864 608.174 255.528C610.179 257.149 611.182 259.56 611.182 262.76C611.182 266.173 610.009 268.84 607.662 270.76C605.358 272.637 601.945 273.576 597.422 273.576H594.606ZM632.981 273.576C630.293 273.576 627.946 273.149 625.941 272.296C623.936 271.443 622.357 270.269 621.205 268.776C620.096 267.24 619.498 265.448 619.413 263.4H627.413C627.498 264.509 628.032 265.405 629.013 266.088C630.037 266.771 631.36 267.112 632.981 267.112H635.797C637.76 267.112 639.232 266.728 640.213 265.96C641.194 265.192 641.685 264.147 641.685 262.824C641.685 261.587 641.237 260.627 640.341 259.944C639.488 259.219 638.144 258.749 636.309 258.536L631.957 257.896C627.946 257.341 625.002 256.275 623.125 254.696C621.248 253.117 620.309 250.749 620.309 247.592C620.309 244.307 621.418 241.768 623.637 239.976C625.856 238.141 629.12 237.224 633.429 237.224H635.861C639.786 237.224 642.922 238.099 645.269 239.848C647.616 241.597 648.874 243.944 649.045 246.888H641.045C640.917 245.949 640.384 245.181 639.445 244.584C638.549 243.987 637.354 243.688 635.861 243.688H633.429C631.594 243.688 630.25 244.029 629.397 244.712C628.586 245.352 628.181 246.312 628.181 247.592C628.181 248.787 628.544 249.683 629.269 250.28C629.994 250.835 631.168 251.24 632.789 251.496L637.333 252.136C641.514 252.733 644.586 253.864 646.549 255.528C648.554 257.149 649.557 259.56 649.557 262.76C649.557 266.173 648.384 268.84 646.037 270.76C643.733 272.637 640.32 273.576 635.797 273.576H632.981ZM660.156 273L654.78 237.8H661.436L664.38 259.368C664.551 260.605 664.7 261.971 664.828 263.464C664.999 264.957 665.127 266.195 665.212 267.176C665.34 266.195 665.511 264.957 665.724 263.464C665.937 261.971 666.129 260.605 666.3 259.368L669.628 237.8H675.836L679.1 259.368C679.271 260.605 679.463 261.992 679.676 263.528C679.889 265.021 680.06 266.259 680.188 267.24C680.273 266.216 680.401 264.957 680.572 263.464C680.785 261.928 680.956 260.563 681.084 259.368L684.22 237.8H690.62L685.116 273H676.86L673.788 251.304C673.617 250.109 673.425 248.787 673.212 247.336C672.999 245.843 672.828 244.627 672.7 243.688C672.572 244.627 672.401 245.843 672.188 247.336C672.017 248.787 671.825 250.109 671.612 251.304L668.412 273H660.156ZM711.075 273.576C708.088 273.576 705.486 273.021 703.267 271.912C701.091 270.76 699.384 269.16 698.147 267.112C696.952 265.021 696.355 262.568 696.355 259.752V251.048C696.355 248.232 696.952 245.8 698.147 243.752C699.384 241.661 701.091 240.061 703.267 238.952C705.486 237.8 708.088 237.224 711.075 237.224C714.104 237.224 716.707 237.8 718.883 238.952C721.059 240.061 722.744 241.661 723.939 243.752C725.176 245.8 725.795 248.211 725.795 250.984V259.752C725.795 262.568 725.176 265.021 723.939 267.112C722.744 269.16 721.059 270.76 718.883 271.912C716.707 273.021 714.104 273.576 711.075 273.576ZM711.075 266.6C713.208 266.6 714.851 266.024 716.003 264.872C717.198 263.677 717.795 261.971 717.795 259.752V251.048C717.795 248.787 717.198 247.08 716.003 245.928C714.851 244.776 713.208 244.2 711.075 244.2C708.984 244.2 707.342 244.776 706.147 245.928C704.952 247.08 704.355 248.787 704.355 251.048V259.752C704.355 261.971 704.952 263.677 706.147 264.872C707.342 266.024 708.984 266.6 711.075 266.6ZM736.266 273V237.8H743.818V244.52H745.802L743.434 248.616C743.434 244.819 744.287 241.96 745.994 240.04C747.701 238.12 750.218 237.16 753.546 237.16C757.343 237.16 760.33 238.333 762.506 240.68C764.682 243.027 765.77 246.269 765.77 250.408V252.968H757.386V250.984C757.386 248.723 756.789 246.973 755.594 245.736C754.442 244.499 752.842 243.88 750.794 243.88C748.703 243.88 747.082 244.499 745.93 245.736C744.821 246.973 744.266 248.723 744.266 250.984V273H736.266ZM784.817 273.64C781.318 273.64 778.481 272.424 776.305 269.992C774.172 267.56 773.105 264.296 773.105 260.2V250.664C773.105 246.525 774.172 243.24 776.305 240.808C778.438 238.376 781.276 237.16 784.817 237.16C787.718 237.16 790.022 237.992 791.729 239.656C793.436 241.277 794.289 243.517 794.289 246.376L792.497 244.52H794.353L794.097 236.136V226.28H802.097V273H794.289V266.28H792.497L794.289 264.424C794.289 267.283 793.436 269.544 791.729 271.208C790.022 272.829 787.718 273.64 784.817 273.64ZM787.633 266.728C789.681 266.728 791.26 266.131 792.369 264.936C793.521 263.699 794.097 261.992 794.097 259.816V250.984C794.097 248.808 793.521 247.123 792.369 245.928C791.26 244.691 789.681 244.072 787.633 244.072C785.585 244.072 783.985 244.669 782.833 245.864C781.681 247.059 781.105 248.765 781.105 250.984V259.816C781.105 262.035 781.681 263.741 782.833 264.936C783.985 266.131 785.585 266.728 787.633 266.728Z" fill="white"/>
<path d="M365.828 273.64C362.628 273.64 359.855 273.107 357.508 272.04C355.161 270.973 353.348 269.459 352.068 267.496C350.831 265.491 350.191 263.144 350.148 260.456H358.148C358.148 262.376 358.831 263.891 360.196 265C361.604 266.067 363.503 266.6 365.892 266.6C368.196 266.6 369.988 266.067 371.268 265C372.591 263.933 373.252 262.461 373.252 260.584C373.252 259.005 372.783 257.64 371.844 256.488C370.948 255.293 369.647 254.483 367.94 254.056L362.564 252.584C358.895 251.645 356.057 249.96 354.052 247.528C352.089 245.096 351.108 242.152 351.108 238.696C351.108 236.051 351.705 233.747 352.9 231.784C354.095 229.821 355.78 228.307 357.956 227.24C360.175 226.173 362.777 225.64 365.764 225.64C370.287 225.64 373.871 226.813 376.516 229.16C379.161 231.464 380.505 234.579 380.548 238.504H372.548C372.548 236.669 371.951 235.24 370.756 234.216C369.561 233.149 367.876 232.616 365.7 232.616C363.609 232.616 361.988 233.107 360.836 234.088C359.684 235.069 359.108 236.456 359.108 238.248C359.108 239.869 359.535 241.256 360.388 242.408C361.284 243.517 362.564 244.307 364.228 244.776L369.796 246.312C373.508 247.251 376.345 248.936 378.308 251.368C380.271 253.757 381.252 256.723 381.252 260.264C381.252 262.909 380.612 265.256 379.332 267.304C378.052 269.309 376.26 270.867 373.956 271.976C371.652 273.085 368.943 273.64 365.828 273.64ZM400.171 273.64C396.544 273.64 393.686 272.68 391.595 270.76C389.504 268.84 388.459 266.259 388.459 263.016C388.459 259.56 389.611 256.893 391.915 255.016C394.219 253.139 397.483 252.2 401.707 252.2H410.475V249.192C410.475 247.485 409.92 246.163 408.811 245.224C407.702 244.243 406.187 243.752 404.267 243.752C402.518 243.752 401.067 244.136 399.915 244.904C398.763 245.672 398.08 246.717 397.867 248.04H390.059C390.443 244.712 391.936 242.067 394.539 240.104C397.142 238.141 400.47 237.16 404.523 237.16C408.832 237.16 412.224 238.248 414.699 240.424C417.216 242.557 418.475 245.459 418.475 249.128V273H410.731V266.856H409.451L410.731 265.128C410.731 267.731 409.771 269.8 407.851 271.336C405.931 272.872 403.371 273.64 400.171 273.64ZM402.795 267.624C405.056 267.624 406.891 267.048 408.299 265.896C409.75 264.744 410.475 263.251 410.475 261.416V257.128H401.835C400.214 257.128 398.912 257.597 397.931 258.536C396.95 259.475 396.459 260.712 396.459 262.248C396.459 263.912 397.014 265.235 398.123 266.216C399.275 267.155 400.832 267.624 402.795 267.624ZM436.37 273V248.936H426.706V241.704H436.37V236.392C436.37 233.32 437.394 230.867 439.442 229.032C441.49 227.197 444.199 226.28 447.57 226.28H457.874V233.32H447.762C446.738 233.32 445.906 233.619 445.266 234.216C444.669 234.771 444.37 235.539 444.37 236.52V241.704H457.874V248.936H444.37V273H436.37ZM480.889 273.64C477.902 273.64 475.3 273.064 473.081 271.912C470.862 270.76 469.134 269.16 467.897 267.112C466.702 265.021 466.105 262.589 466.105 259.816V250.984C466.105 248.211 466.702 245.8 467.897 243.752C469.134 241.661 470.862 240.04 473.081 238.888C475.3 237.736 477.902 237.16 480.889 237.16C483.833 237.16 486.393 237.736 488.569 238.888C490.788 240.04 492.494 241.661 493.689 243.752C494.926 245.8 495.545 248.211 495.545 250.984V257.32H473.849V259.816C473.849 262.291 474.446 264.168 475.641 265.448C476.836 266.685 478.606 267.304 480.953 267.304C482.745 267.304 484.196 267.005 485.305 266.408C486.414 265.768 487.118 264.851 487.417 263.656H495.289C494.692 266.685 493.07 269.117 490.425 270.952C487.822 272.744 484.644 273.64 480.889 273.64ZM487.801 252.84V250.92C487.801 248.488 487.225 246.632 486.073 245.352C484.921 244.029 483.193 243.368 480.889 243.368C478.585 243.368 476.836 244.029 475.641 245.352C474.446 246.675 473.849 248.552 473.849 250.984V252.328L488.377 252.2L487.801 252.84Z" fill="#00FF00"/>
</svg>
